<?xml version="1.0" encoding="utf-8"?>
<!-- Generator: Adobe Illustrator 18.0.0, SVG Export Plug-In . SVG Version: 6.00 Build 0)  -->
<!DOCTYPE svg PUBLIC "-//W3C//DTD SVG 1.1//EN" "http://www.w3.org/Graphics/SVG/1.1/DTD/svg11.dtd">
<svg version="1.1" id="Layer_1" xmlns="http://www.w3.org/2000/svg" xmlns:xlink="http://www.w3.org/1999/xlink" x="0px" y="0px"
	 viewBox="0 0 50 47" enable-background="new 0 0 50 47" xml:space="preserve">
<g>
	<path fill="#FFFFFF" d="M44.6,11.6c0.1-0.2,0.3-0.3,0.3-0.5c1.7-2.8-0.5-8.2-1-9.4c-0.1-0.2-0.2-0.3-0.4-0.3
		c-1.3-0.1-6.4-0.3-8.7,1.6c-2.9-1.4-6.3-2.2-9.8-2.2S18.1,1.6,15.1,3c-2.4-1.8-7.5-1.7-8.7-1.6C6.2,1.4,6,1.5,6,1.7
		c-0.5,1.2-2.7,6.6-1,9.4c0.1,0.2,0.3,0.3,0.3,0.5C3,15.2,1.7,19.5,1.7,24.1c0,7.6,3.6,14.4,9.2,18.6c0.8,0.6,1.6,1.2,2.5,1.7
		c2.9,1.6,5,0.4,5.7,0c1.7-1,3.7-1.7,5.9-1.7l0,0l0,0c2.2,0,4.1,0.6,5.9,1.7c0.8,0.5,2.9,1.7,5.7,0c0.8-0.5,1.7-1.1,2.5-1.7
		c5.6-4.3,9.2-11,9.2-18.6C48.3,19.6,47,15.3,44.6,11.6z"/>
	<g>
		<g>
			<circle fill="#DDDDDD" cx="25" cy="23.1" r="9.5"/>
		</g>
		<path fill="#FFFFFF" d="M22.9,24.3c0,0.8-0.7,1.4-1.4,1.4l0,0c-0.8,0-1.4-0.7-1.4-1.4v-2.6c0-0.8,0.7-1.4,1.4-1.4l0,0
			c0.8,0,1.4,0.7,1.4,1.4V24.3z"/>
		<path fill="#FFFFFF" d="M30,24.3c0,0.8-0.7,1.4-1.4,1.4l0,0c-0.8,0-1.4-0.7-1.4-1.4v-2.6c0-0.8,0.7-1.4,1.4-1.4l0,0
			c0.8,0,1.4,0.7,1.4,1.4V24.3z"/>
	</g>
</g>
</svg>
